<svg height="512" viewBox="0 0 128 128" width="512" xmlns="http://www.w3.org/2000/svg"><g id="number"><text fill="#98cb4a" font-family="MyriadPro-Regular, Myriad Pro" font-size="40" letter-spacing=".002em" transform="translate(61.012 -1194.265)">8<tspan x="-10.3" y="228">18</tspan><tspan x="-10.3" y="456">28</tspan><tspan x="-10.3" y="684">38</tspan><tspan x="-10.3" y="912">48</tspan><tspan x="-10.3" y="1140">58</tspan><tspan x="-10.3" y="1368">68</tspan><tspan x="-10.3" y="1596">78</tspan><tspan x="-10.3" y="1824">88</tspan><tspan x="-10.3" y="2052">98</tspan><tspan x="-20.599" y="2280">108</tspan><tspan x="-20.599" y="2508">118</tspan><tspan x="-20.599" y="2736">128</tspan><tspan x="-20.599" y="2964">138</tspan><tspan x="-20.599" y="3192">148</tspan><tspan x="-20.599" y="3420">158</tspan><tspan x="-20.599" y="3648">168</tspan><tspan x="-20.599" y="3876">178</tspan><tspan x="-20.599" y="4104">188</tspan><tspan x="-20.599" y="4332">198</tspan><tspan x="-20.599" y="4560">208</tspan><tspan x="-20.599" y="4788">218</tspan><tspan x="-20.599" y="5016">228</tspan><tspan x="-20.599" y="5244">238</tspan><tspan x="-20.599" y="5472">248</tspan></text></g><g id="Circle_Grid" data-name="Circle Grid"><circle cx="64" cy="64" fill="#98cb4a" r="64"/></g><g id="icon"><rect fill="#575b6d" height="82" rx="2.858" width="48.876" x="39.562" y="23"/><path d="m42.611 30.622h42.778v62.754h-42.778z" fill="#69b0ee"/><g fill="#828a9e"><circle cx="64" cy="98.966" r="2.922"/><path d="m67.525 26.049h-7.05a1.048 1.048 0 1 0 0 2.1h7.05a1.048 1.048 0 1 0 0-2.1z"/></g></g></svg>