<svg height="512" viewBox="0 0 128 128" width="512" xmlns="http://www.w3.org/2000/svg"><g id="Circle_Grid" data-name="Circle Grid"><circle cx="64" cy="64" fill="#2cbfae" r="64"/></g><g id="icon"><path d="m97.679 75.222h-6.7l2.174-42.481a1.176 1.176 0 0 1 1.174-1.116 1.176 1.176 0 0 1 1.173 1.116z" fill="#575b6d"/><path d="m37.018 75.222h-6.7l2.182-42.481a1.176 1.176 0 0 1 1.174-1.116 1.176 1.176 0 0 1 1.174 1.116z" fill="#575b6d"/><path d="m87.52 86.634h11.074a0 0 0 0 1 0 0v2.843a.9.9 0 0 1 -.9.9h-9.276a.9.9 0 0 1 -.9-.9v-2.843a0 0 0 0 1 .002 0z" fill="#dbd8dd"/><path d="m29.406 86.634h11.074a0 0 0 0 1 0 0v2.843a.9.9 0 0 1 -.9.9h-9.28a.9.9 0 0 1 -.9-.9v-2.843a0 0 0 0 1 .006 0z" fill="#dbd8dd"/><rect fill="#eeefee" height="21.935" rx="3.28" width="82" x="23" y="65.929"/><rect fill="#62667c" height="7.38" rx="1.64" width="71.75" x="28.125" y="75.222"/><circle cx="33.797" cy="78.912" fill="#ef5261" r="1.401"/><circle cx="39.707" cy="78.912" fill="#2cbfae" r="1.401"/><circle cx="65.401" cy="78.912" fill="#ef5261" r="1.401"/><circle cx="72.029" cy="78.912" fill="#f6c863" r="1.401"/><circle cx="78.658" cy="78.912" fill="#ef5261" r="1.401"/><circle cx="85.286" cy="78.912" fill="#ef5261" r="1.401"/><circle cx="91.914" cy="78.912" fill="#f6c863" r="1.401"/></g></svg>