<?xml version="1.0" ?><!DOCTYPE svg  PUBLIC '-//W3C//DTD SVG 1.1//EN'  'http://www.w3.org/Graphics/SVG/1.1/DTD/svg11.dtd'><svg enable-background="new 0 0 512 512" height="512px" id="Layer_1" version="1.1" viewBox="0 0 512 512" width="512px" xml:space="preserve" xmlns="http://www.w3.org/2000/svg" xmlns:xlink="http://www.w3.org/1999/xlink"><g><linearGradient gradientUnits="userSpaceOnUse" id="SVGID_1_" x1="7.5958" x2="511.7318" y1="8.6977" y2="512.8337"><stop offset="0" style="stop-color:#11A4DC"/><stop offset="0.5051" style="stop-color:#0F94C9"/><stop offset="1" style="stop-color:#0C82B4"/></linearGradient><path d="M324.612,251.465c-7.323-4.764-16.267-8.838-26.646-12.16c-10.227-3.283-21.822-6.306-34.421-9.017   c-9.954-2.299-17.21-4.073-21.53-5.283c-4.219-1.156-8.452-2.784-12.539-4.851c-3.934-1.987-7.063-4.339-9.27-7.057   c-2.106-2.552-3.13-5.502-3.13-9.057c0-5.788,3.163-10.672,9.655-14.918c6.738-4.432,15.821-6.665,26.972-6.665   c12.021,0,20.765,2,26.008,5.994c5.389,4.1,10.087,9.921,13.967,17.283c3.356,5.774,6.379,9.788,9.29,12.386   c3.13,2.751,7.648,4.166,13.409,4.166c6.346,0,11.715-2.246,15.988-6.671c4.246-4.419,6.386-9.476,6.386-15.044   c0-5.774-1.635-11.755-4.851-17.749c-3.203-5.954-8.306-11.662-15.144-17.018c-6.798-5.309-15.443-9.628-25.709-12.818   c-10.213-3.156-22.427-4.778-36.328-4.778c-17.403,0-32.773,2.425-45.684,7.203c-13.091,4.824-23.264,11.894-30.221,20.978   c-7.017,9.13-10.572,19.742-10.572,31.504c0,12.346,3.396,22.819,10.074,31.198c6.579,8.226,15.576,14.818,26.753,19.576   c10.917,4.632,24.633,8.738,40.806,12.193c11.874,2.492,21.483,4.884,28.553,7.084c6.791,2.133,12.366,5.196,16.626,9.163   c4.033,3.807,5.994,8.625,5.994,14.772c0,7.775-3.748,14.134-11.509,19.423c-7.934,5.422-18.493,8.167-31.371,8.167   c-9.343,0-16.958-1.362-22.606-4.027c-5.608-2.658-9.994-6.053-13.057-10.107c-3.183-4.18-6.18-9.516-8.944-15.848   c-2.478-5.801-5.542-10.3-9.124-13.35c-3.748-3.163-8.366-4.758-13.715-4.758c-6.525,0-11.988,2.033-16.253,6.047   c-4.306,4.047-6.485,8.997-6.485,14.692c0,9.137,3.349,18.599,9.954,28.121c6.552,9.469,15.17,17.111,25.636,22.752   c14.626,7.761,33.384,11.702,55.744,11.702c18.619,0,34.985-2.884,48.641-8.559c13.795-5.728,24.44-13.808,31.63-23.995   c7.23-10.213,10.904-21.922,10.904-34.72c0-10.725-2.127-19.948-6.333-27.424C337.968,262.542,332.061,256.316,324.612,251.465z" fill="url(#SVGID_1_)"/><linearGradient gradientUnits="userSpaceOnUse" id="SVGID_2_" x1="8.1468" x2="512.2828" y1="8.1467" y2="512.2827"><stop offset="0" style="stop-color:#11A4DC"/><stop offset="0.5051" style="stop-color:#0F94C9"/><stop offset="1" style="stop-color:#0C82B4"/></linearGradient><path d="M256,7.098C118.535,7.098,7.098,118.535,7.098,256c0,137.465,111.437,248.902,248.902,248.902   c137.465,0,248.902-111.437,248.902-248.902C504.902,118.535,393.465,7.098,256,7.098z M328.925,421.528   c-15.443,0-29.968-3.881-42.687-10.705c-9.243,1.708-18.752,2.605-28.5,2.605c-85.992,0-155.684-69.699-155.684-155.691   c0-10.718,1.076-21.197,3.15-31.304c-7.868-13.403-12.406-28.998-12.406-45.657c0-49.877,40.421-90.305,90.291-90.305   c17.649,0,34.122,5.097,48.023,13.868c8.672-1.482,17.562-2.273,26.633-2.273c85.985,0,155.677,69.699,155.677,155.671   c0,11.469-1.229,22.626-3.582,33.417c5.994,12.087,9.369,25.683,9.363,40.089C419.203,381.107,378.788,421.528,328.925,421.528z" fill="url(#SVGID_2_)"/></g></svg>