<svg height="512" viewBox="0 0 128 128" width="512" xmlns="http://www.w3.org/2000/svg"><g id="Circle_Grid" data-name="Circle Grid"><circle cx="64" cy="64" fill="#69b0ee" r="64"/></g><g id="icon"><path d="m28.979 60.436h70.042v9.111h-70.042z" fill="#414451"/><rect fill="#575b6d" height="23.295" rx="1.864" width="82" x="23" y="38.58"/><path d="m37.775 50.231a3.775 3.775 0 1 1 -3.775-3.779 3.773 3.773 0 0 1 3.775 3.779z" fill="#ef5261"/><path d="m50.333 50.231a3.775 3.775 0 1 1 -3.78-3.78 3.773 3.773 0 0 1 3.78 3.78z" fill="#2cbfae"/><g fill="#414451"><path d="m97.274 42.56h1.747v15.336h-1.747z"/><path d="m91.333 42.56h1.747v15.336h-1.747z"/><path d="m85.393 42.56h1.747v15.336h-1.747z"/><path d="m79.453 42.56h1.747v15.336h-1.747z"/><path d="m73.512 42.56h1.747v15.336h-1.747z"/><path d="m67.572 42.56h1.747v15.336h-1.747z"/><path d="m61.632 42.56h1.747v15.336h-1.747z"/></g><rect fill="#575b6d" height="23.295" rx="1.864" width="82" x="23" y="66.124"/><path d="m37.775 77.776a3.775 3.775 0 1 1 -3.775-3.776 3.773 3.773 0 0 1 3.775 3.776z" fill="#ef5261"/><path d="m50.333 77.776a3.775 3.775 0 1 1 -3.779-3.776 3.773 3.773 0 0 1 3.779 3.776z" fill="#f6c863"/><path d="m97.274 70.104h1.747v15.336h-1.747z" fill="#414451"/><path d="m91.333 70.104h1.747v15.336h-1.747z" fill="#414451"/><path d="m85.393 70.104h1.747v15.336h-1.747z" fill="#414451"/><path d="m79.453 70.104h1.747v15.336h-1.747z" fill="#414451"/><path d="m73.512 70.104h1.747v15.336h-1.747z" fill="#414451"/><path d="m67.572 70.104h1.747v15.336h-1.747z" fill="#414451"/><path d="m61.632 70.104h1.747v15.336h-1.747z" fill="#414451"/></g></svg>